<svg width="100%" height="100%" viewBox="0 0 100 100" >
    <g>
        <line x1="0%" y1="50%" x2="100%" y2="50%" stroke="#b1abab" stroke-width="1%" stroke-linecap="round" />
        <line x1="50%" y1="0%" x2="50%" y2="100%" stroke="#b1abab" stroke-width="1%" stroke-linecap="round" />
        <line x1="0%" y1="0%" x2="100%" y2="100%" stroke="#b1abab" stroke-width="1%" stroke-linecap="round" />
        <line x1="100%" y1="0%" x2="0%" y2="100%" stroke="#b1abab" stroke-width="1%" stroke-linecap="round" />

        <line x1="0%" y1="20%" x2="100%" y2="20%" stroke="#b1abab" stroke-width="1%" stroke-linecap="round" />
        <line x1="0%" y1="10%" x2="100%" y2="10%" stroke="#b1abab" stroke-width="1%" stroke-linecap="round" />
        <line x1="0%" y1="80%" x2="100%" y2="80%" stroke="#b1abab" stroke-width="1%" stroke-linecap="round" />
        <line x1="0%" y1="90%" x2="100%" y2="90%" stroke="#b1abab" stroke-width="1%" stroke-linecap="round" />

        <line x1="10%" y1="0%" x2="10%" y2="100%" stroke="#b1abab" stroke-width="1%" stroke-linecap="round" />
        <line x1="20%" y1="0%" x2="20%" y2="100%" stroke="#b1abab" stroke-width="1%" stroke-linecap="round" />
        <line x1="80%" y1="0%" x2="80%" y2="100%" stroke="#b1abab" stroke-width="1%" stroke-linecap="round" />
        <line x1="90%" y1="0%" x2="90%" y2="100%" stroke="#b1abab" stroke-width="1%" stroke-linecap="round" />

        <line x1="50%" y1="0%" x2="0%" y2="50%" stroke="#b1abab" stroke-width="1%" stroke-linecap="round" />
        <line x1="100%" y1="50%" x2="50%" y2="100%" stroke="#b1abab" stroke-width="1%" stroke-linecap="round" />

        <line x1="0%" y1="50%" x2="50%" y2="100%" stroke="#b1abab" stroke-width="1%" stroke-linecap="round" />
        <line x1="50%" y1="0%" x2="100%" y2="50%" stroke="#b1abab" stroke-width="1%" stroke-linecap="round" />
    </g>
	<g>
		<path 
			d="M50,10 L84.64,30 84.64,70 50,90 15.36,70 15.36,30 Z" 
			stroke="yellow"></path>
	</g>
</svg>